<?xml version="1.0" encoding="UTF-8" standalone="no"?>
<!-- Created with Inkscape (http://www.inkscape.org/) -->

<svg
   xmlns:dc="http://purl.org/dc/elements/1.1/"
   xmlns:cc="http://creativecommons.org/ns#"
   xmlns:rdf="http://www.w3.org/1999/02/22-rdf-syntax-ns#"
   xmlns:svg="http://www.w3.org/2000/svg"
   xmlns="http://www.w3.org/2000/svg"
   xmlns:sodipodi="http://sodipodi.sourceforge.net/DTD/sodipodi-0.dtd"
   xmlns:inkscape="http://www.inkscape.org/namespaces/inkscape"
   width="187.04922mm"
   height="30.790724mm"
   viewBox="0 0 187.04922 30.790724"
   version="1.1"
   id="svg1457"
   sodipodi:docname="aitomarine.svg"
   inkscape:version="0.92.4 (5da689c313, 2019-01-14)">
  <defs
     id="defs1451" />
  <sodipodi:namedview
     id="base"
     pagecolor="#ffffff"
     bordercolor="#666666"
     borderopacity="1.0"
     inkscape:pageopacity="0.0"
     inkscape:pageshadow="2"
     inkscape:zoom="1.4142136"
     inkscape:cx="267.39746"
     inkscape:cy="22.276146"
     inkscape:document-units="mm"
     inkscape:current-layer="layer1"
     showgrid="false"
     inkscape:window-width="1920"
     inkscape:window-height="1017"
     inkscape:window-x="-8"
     inkscape:window-y="-8"
     inkscape:window-maximized="1" />
  <metadata
     id="metadata1454">
    <rdf:RDF>
      <cc:Work
         rdf:about="">
        <dc:format>image/svg+xml</dc:format>
        <dc:type
           rdf:resource="http://purl.org/dc/dcmitype/StillImage" />
      </cc:Work>
    </rdf:RDF>
  </metadata>
  <g
     inkscape:label="Layer 1"
     inkscape:groupmode="layer"
     id="layer1"
     transform="translate(-12.529913,-109.87649)">
    <path
       style="fill:#000000;stroke-width:0.26458332"
       d="m 183.71532,140.29719 c -1.21637,-0.62863 -2.07925,-2.37827 -2.29095,-4.6453 l -0.16308,-1.74642 1.02857,-0.26676 c 0.56572,-0.14673 1.56437,-0.40094 2.21921,-0.56492 0.65484,-0.16398 1.40364,-0.36008 1.66399,-0.43579 0.3955,-0.11502 0.44504,-0.0248 0.30119,0.5483 -0.2616,1.04229 0.10812,2.9141 0.70137,3.55087 1.04494,1.12162 2.73909,0.52871 5.48166,-1.91844 1.67513,-1.49469 2.17137,-1.75811 2.16955,-1.15169 -0.004,1.2285 -3.3042,4.5467 -5.85655,5.88792 -2.22982,1.17174 -3.95294,1.41512 -5.25496,0.74223 z m -67.65421,-0.21482 c -1.3047,-0.91385 -1.38995,-3.46463 -0.22105,-6.61377 l 0.58925,-1.5875 2.30095,-0.23146 c 1.26553,-0.1273 2.37194,-0.16048 2.45869,-0.0737 0.0867,0.0867 0.0289,0.66716 -0.12844,1.28979 -0.54088,2.13972 -0.56836,2.50288 -0.225,2.97246 0.31965,0.43714 0.40204,0.44083 1.15469,0.0516 0.44577,-0.23052 1.63697,-1.31606 2.64711,-2.41233 1.72058,-1.86728 2.45718,-2.37946 2.45718,-1.70854 0,0.47917 -2.38284,3.44708 -4.3525,5.4212 -2.7605,2.76674 -5.29412,3.86358 -6.68088,2.89226 z m 9.92133,0.2177 c -1.08037,-0.28438 -0.89786,-2.46513 0.49824,-5.95327 0.5075,-1.26797 1.06158,-2.40743 1.23129,-2.53214 0.41768,-0.30693 4.29112,-0.003 4.22503,0.33103 -0.0288,0.14552 -0.32033,0.88979 -0.64794,1.65393 -0.46869,1.09319 -0.52687,1.45815 -0.27291,1.71211 0.25397,0.25396 0.66015,-0.0373 1.90549,-1.36653 0.8705,-0.92911 1.66645,-1.60556 1.76879,-1.50323 0.51385,0.51386 -2.79514,4.80888 -4.8516,6.29731 -1.14083,0.82572 -2.79845,1.59667 -3.24684,1.51009 -0.0874,-0.0169 -0.36172,-0.0841 -0.60955,-0.1493 z m 25.46515,-0.15332 c -1.09292,-0.55884 -1.21233,-1.91613 -0.34894,-3.96617 0.46401,-1.10173 0.56672,-1.12604 3.47369,-0.8222 1.38493,0.14475 1.62632,0.24744 1.62632,0.69189 0,0.4939 0.035,0.49897 0.65215,0.0946 0.70382,-0.46117 1.7291,-0.57462 1.7291,-0.19134 0,0.52383 -2.4107,2.87039 -3.612,3.51591 -1.65655,0.89014 -2.70832,1.0925 -3.52032,0.67731 z M 38.062203,139.86456 c -2.369875,-0.78377 -4.210728,-2.42014 -5.258274,-4.67418 -0.52402,-1.12754 -0.554485,-1.63184 -0.558409,-9.24331 l -0.0041,-8.05071 0.697495,-0.18659 c 0.383622,-0.10262 1.009445,-0.12695 1.390717,-0.0541 l 0.693223,0.13252 -0.01928,7.84019 c -0.0106,4.31211 0.06579,8.07832 0.169764,8.36936 0.370345,1.03666 1.481122,2.26271 2.573512,2.84058 0.860465,0.45518 1.554078,0.58674 3.093527,0.58674 2.838915,0 4.678468,-1.10344 5.713732,-3.42732 0.129657,-0.29104 0.296093,-4.04151 0.369859,-8.33437 l 0.134117,-7.80521 1.274104,-0.0813 1.274103,-0.0814 -0.08348,8.15114 c -0.07871,7.68535 -0.115972,8.22143 -0.652113,9.38123 -0.760137,1.64436 -2.471774,3.30721 -4.235309,4.11458 -1.756709,0.80425 -4.952516,1.0581 -6.573139,0.52212 z m 34.598119,-0.057 c -5.879166,-1.58333 -9.725591,-7.20879 -8.811215,-12.88655 1.152269,-7.15493 8.732329,-11.53706 15.701888,-9.07748 2.355082,0.83112 4.355544,2.37094 5.704387,4.39085 1.373854,2.05736 1.902404,3.81601 1.911855,6.36132 0.0093,2.51832 -0.136136,3.1229 -1.285613,5.34244 -2.453325,4.73714 -8.106639,7.24686 -13.221302,5.86942 z m 5.963726,-2.84691 c 2.470338,-0.86205 4.620101,-3.00794 5.467305,-5.45745 0.222872,-0.64438 0.405127,-2.0136 0.405014,-3.04271 -5.29e-4,-4.71952 -3.948023,-8.61236 -8.776666,-8.65515 -3.594266,-0.0319 -6.560502,1.70285 -8.309379,4.85946 -0.703511,1.26979 -0.77275,1.62174 -0.769014,3.90897 0.0049,2.98032 0.535395,4.33284 2.433621,6.20425 2.553359,2.5173 6.200942,3.35102 9.549119,2.18263 z m 92.504482,2.42414 c -0.54663,-1.05706 -0.31142,-3.54478 0.36897,-3.90256 0.24412,-0.12837 1.30707,-0.31862 2.36209,-0.42278 l 1.91823,-0.18938 v 0.68831 c 0,0.9438 0.51741,0.86632 1.5875,-0.23773 0.49366,-0.50933 1.11538,-0.92604 1.38162,-0.92604 0.4432,0 0.45221,0.0616 0.10679,0.72954 -0.52226,1.00995 -2.96796,3.42934 -4.38448,4.33731 -1.62917,1.04427 -2.77465,1.01799 -3.34072,-0.0767 z m -65.41162,0.23386 c -0.55214,-0.66529 -0.61819,-1.76587 -0.2032,-3.38574 0.71977,-2.80954 0.84637,-2.9604 2.79536,-3.33086 0.94589,-0.17979 2.04063,-0.33424 2.43276,-0.34321 l 0.71297,-0.0163 -0.66775,1.45856 c -1.02595,2.24096 -0.61849,2.32627 1.32504,0.27742 1.77487,-1.87105 2.49273,-2.12953 1.66925,-0.60105 -0.75419,1.39987 -3.67072,4.65838 -4.91677,5.49328 -1.22857,0.8232 -2.6664,1.0278 -3.14766,0.44792 z m -76.932108,-1.43936 c -0.376466,-0.84465 -1.049177,-2.39893 -1.494912,-3.45395 l -0.810429,-1.91823 H 22.1936 17.907739 l -1.441903,3.24114 -1.441903,3.24115 -1.24701,0.0806 c -0.932038,0.0603 -1.24701,-0.0131 -1.24701,-0.29055 0,-0.34491 8.431666,-19.78033 9.30099,-21.43925 0.305525,-0.58303 0.450174,-0.67017 0.658755,-0.39687 0.283982,0.3721 9.329669,21.48136 9.428759,22.00321 0.03604,0.1898 -0.421275,0.33821 -1.195381,0.38792 l -1.25375,0.0805 z m -3.385465,-7.83466 c 0.150918,-0.15092 -2.875008,-7.06252 -3.091999,-7.06252 -0.107696,0 -0.258399,0.14882 -0.334895,0.33073 -0.0765,0.1819 -0.791343,1.78257 -1.588549,3.55704 -1.383453,3.07939 -1.423594,3.23 -0.88141,3.30729 0.735078,0.10479 5.772756,-0.008 5.896853,-0.13254 z m 63.99203,9.10566 -1.058333,-0.16089 1.959287,-0.86294 c 1.077611,-0.47461 2.009992,-0.81223 2.07196,-0.75026 0.316119,0.31612 -1.080834,2.03537 -1.602751,1.97253 -0.171505,-0.0206 -0.78808,-0.10995 -1.370163,-0.19844 z m 7.209896,0.0554 c -0.614556,-0.16297 -0.592053,-0.34019 0.29029,-2.28616 l 0.753308,-1.66139 2.122789,-0.58176 c 1.16753,-0.31996 2.25845,-0.58175 2.42426,-0.58175 0.16582,0 -0.27267,1.14368 -0.9744,2.54152 l -1.275878,2.54153 -1.438674,0.0754 c -0.791271,0.0415 -1.647034,0.0201 -1.901695,-0.0474 z m 38.959957,-0.15013 c 3e-5,-0.1819 0.58304,-1.69994 1.29558,-3.37343 l 1.29552,-3.04271 0.96828,0.06 c 1.33221,0.0825 3.05514,0.5705 3.05514,0.86535 0,0.1339 -0.58755,1.49853 -1.30566,3.03251 l -1.30566,2.78905 h -2.00163 c -1.42495,0 -2.00162,-0.0953 -2.00157,-0.33073 z m 25.56897,0.12561 c -0.0697,-0.11282 0.19456,-0.97602 0.5873,-1.91823 l 0.71407,-1.71311 2.30751,-0.0764 c 1.26913,-0.0421 2.3075,-0.009 2.3075,0.0727 0,0.0821 -0.41821,0.97966 -0.92937,1.99467 l -0.92936,1.84548 h -1.96544 c -1.08099,0 -2.02248,-0.0923 -2.09221,-0.20512 z M 56.97991,129.91922 v -9.53016 l -2.976562,-0.0748 -2.976562,-0.0748 v -1.19063 -1.19062 l 7.489144,-0.0703 7.489145,-0.0703 -0.08081,1.26091 -0.08081,1.26092 -2.976563,0.0748 c -2.868366,0.0721 -2.977245,0.0961 -2.995334,0.66146 -0.01032,0.32265 -0.04372,4.57524 -0.07422,9.45019 l -0.05545,8.86354 -1.38099,0.08 -1.380993,0.08 z m 30.956249,8.35637 c 0,-0.17395 0.787408,-1.922 1.749793,-3.88455 4.781039,-9.74975 5.633754,-11.76868 5.167523,-12.23491 -0.233886,-0.23389 -0.673933,0.0547 -1.834245,1.20291 -2.326169,2.30189 -2.996935,1.96645 -1.067839,-0.53402 2.291818,-2.97062 5.923507,-5.36821 7.055749,-4.65811 0.72794,0.45654 0.698656,2.61954 -0.06416,4.73875 l -0.659321,1.83169 0.669089,-0.79375 c 2.494902,-2.95973 3.477442,-3.96149 4.679552,-4.77103 1.49462,-1.00654 2.79622,-1.19254 3.38454,-0.48366 0.55852,0.67297 0.38873,3.15936 -0.36785,5.38699 -0.37069,1.0914 -0.64897,2.01006 -0.61843,2.04146 0.0306,0.0314 0.58033,-0.66355 1.22173,-1.54433 1.68249,-2.31041 5.35909,-5.70895 6.56782,-6.0711 3.41407,-1.02288 3.8246,1.89539 1.04445,7.42444 l -1.39611,2.77652 -2.38125,0.72514 c -1.30969,0.39883 -2.52249,0.72698 -2.6951,0.72921 -0.17263,0.002 0.57151,-1.71762 1.65364,-3.82192 2.55047,-4.95962 2.65195,-6.04839 0.34005,-3.64849 -1.62426,1.6861 -3.64243,4.38984 -5.1792,6.93858 l -1.26314,2.09493 -2.59989,0.96417 c -1.429951,0.53029 -2.65135,0.91272 -2.714231,0.84984 -0.06288,-0.0629 0.347091,-1.11543 0.911043,-2.33899 1.189568,-2.58091 3.096828,-7.65562 3.346968,-8.9054 0.0947,-0.47294 0.0644,-0.8599 -0.0674,-0.8599 -0.61456,0 -2.24614,2.36986 -6.404314,9.30223 -1.601002,2.66914 -3.002986,4.99317 -3.115519,5.16452 -0.328813,0.50066 -5.363982,2.73362 -5.363982,2.37878 z m 77.589061,-5.66351 c -0.76399,-0.0534 -1.38907,-0.21408 -1.38907,-0.35696 0,-0.14289 0.65831,-1.69852 1.46291,-3.45696 3.00343,-6.56394 3.12752,-8.09373 0.42939,-5.29317 -1.6719,1.73537 -1.8923,1.87533 -1.8923,1.20167 0,-1.1046 3.59548,-4.92212 5.59804,-5.94375 3.23597,-1.65087 3.87391,1.01787 1.58014,6.61028 -0.92724,2.2607 -0.89125,2.23725 1.17881,-0.76813 1.944,-2.82235 3.88882,-4.75341 5.69253,-5.65224 1.83264,-0.91324 2.94035,-0.91343 3.65836,-6.1e-4 0.68864,0.87545 0.6886,1.54485 -2.3e-4,3.61068 -0.59667,1.78947 -4.46807,9.97742 -4.72026,9.98329 -0.0853,0.002 -1.15693,0.0793 -2.3814,0.17186 -1.84999,0.13981 -2.20019,0.10566 -2.07183,-0.20205 0.0849,-0.20366 1.01124,-2.20404 2.05842,-4.44528 1.80877,-3.8713 2.50833,-6.11148 1.90847,-6.11148 -0.60016,0 -3.59913,3.84366 -6.55118,8.39637 -1.74921,2.69767 -1.31627,2.48346 -4.5608,2.25648 z m 16.6026,-0.88534 c 0,-0.15766 0.35054,-1.16208 0.77897,-2.23204 2.28119,-5.69699 6.78901,-9.88973 11.9198,-11.08666 1.64979,-0.38487 2.38799,-0.31817 3.35187,0.30288 1.42034,0.91514 1.85263,3.90388 0.86772,5.99919 -0.67198,1.42957 -2.18507,3.22796 -3.12044,3.70879 -1.05963,0.54472 -6.64416,2.12311 -10.26953,2.90254 -3.71588,0.79889 -3.52839,0.77736 -3.52839,0.4053 z m 8.46667,-3.42472 c 2.05453,-1.05855 4.34184,-4.53914 4.69032,-7.13725 0.13135,-0.97935 0.0949,-1.05762 -0.49303,-1.05762 -1.51035,0 -3.78754,2.41594 -5.7359,6.08541 -0.5795,1.09141 -1.13068,2.24418 -1.22484,2.56171 -0.16396,0.55288 -0.12868,0.56564 0.83309,0.3011 0.55238,-0.15192 1.42103,-0.49093 1.93036,-0.75335 z m -35.18958,3.14023 c -0.65485,-0.13744 -1.34158,-0.30036 -1.52608,-0.36205 -0.22802,-0.0762 0.38632,-1.5538 1.91823,-4.61362 1.23952,-2.47581 2.25368,-4.62186 2.25368,-4.76899 0,-0.6553 -0.78959,-0.13021 -2.42587,1.61325 -0.97083,1.03442 -1.89285,1.80185 -2.04892,1.70539 -0.50401,-0.3115 0.64552,-2.08555 2.43767,-3.76202 3.65831,-3.42217 7.0642,-3.98311 7.0642,-1.16346 0,0.92122 -1.60382,4.81464 -3.73966,9.07838 -1.43205,2.85878 -1.35501,2.81425 -3.93325,2.27312 z m -13.36146,-2.58491 c -1.01865,-0.24814 -1.82528,-0.56228 -1.79251,-0.69808 0.0328,-0.1358 0.47725,-1.25894 0.98774,-2.49586 0.91356,-2.21359 1.16388,-3.43959 0.70228,-3.43959 -0.12913,0 -0.91025,0.83601 -1.73581,1.8578 -1.34769,1.668 -1.99816,2.08112 -1.99816,1.26904 0,-0.52485 2.30971,-3.51653 3.80428,-4.92756 1.5796,-1.49129 3.54089,-2.54177 4.24275,-2.27244 0.90602,0.34767 0.87424,2.37455 -0.0824,5.25753 -0.28859,0.86968 -0.49282,1.61312 -0.45384,1.65209 0.039,0.039 0.64988,-0.77657 1.35758,-1.81232 3.03987,-4.44901 6.22611,-6.36037 7.04994,-4.22912 0.58236,1.50657 -0.30636,4.2211 -1.90551,5.82024 -1.50116,1.50117 -2.62587,0.93105 -2.64563,-1.34109 l -0.01,-1.14188 -0.91244,1.05834 c -0.50184,0.58208 -1.5987,2.15844 -2.43746,3.50301 -0.87881,1.40876 -1.69319,2.43331 -1.92189,2.41787 -0.21829,-0.0147 -1.23032,-0.22984 -2.24896,-0.47798 z m -23.15104,-1.47157 c 0,-0.42848 2.78432,-3.64977 4.76612,-5.5141 3.53374,-3.32429 6.77603,-4.47124 8.59499,-3.04044 0.71034,0.55876 0.74338,0.56122 1.09401,0.0817 0.19885,-0.27194 0.36154,-0.59075 0.36154,-0.70846 0,-0.1177 1.01203,-0.21401 2.24896,-0.21401 1.63045,0 2.245,0.091 2.23457,0.33073 -0.008,0.1819 -0.88702,2.23573 -1.95357,4.56406 l -1.93918,4.23333 -2.21362,-0.091 c -1.21749,-0.0501 -2.2543,-0.13043 -2.30402,-0.1786 -0.0497,-0.0482 0.35083,-0.98034 0.89011,-2.07151 1.0917,-2.2089 1.49181,-4.3147 0.89143,-4.69164 -0.99539,-0.62495 -3.58256,1.35969 -6.04729,4.63893 -1.6931,2.2526 -1.98979,2.52717 -2.74002,2.53567 -0.46273,0.005 -1.52593,0.0788 -2.36268,0.16351 -0.83674,0.0847 -1.52135,0.0675 -1.52135,-0.0382 z m 43.65625,-10.63724 c -1.96081,-0.70077 -0.97074,-4.89097 1.49742,-6.3374 0.99418,-0.58263 1.28461,-0.64561 1.8304,-0.39694 0.35679,0.16257 0.78866,0.60271 0.95969,0.97809 0.64653,1.41898 -0.70481,4.31793 -2.53222,5.43224 -0.85761,0.52294 -1.08252,0.56446 -1.75529,0.32401 z"
       id="path2022"
       inkscape:connector-curvature="0" />
  </g>
</svg>
