<svg xmlns="http://www.w3.org/2000/svg" width="172" height="50" viewBox="0 0 172 50"><g fill="#fff" fill-rule="evenodd"><path d="M157.712 28.654c-.396.198-.99.316-1.68.316h-.975c-.446 0-.61-.2-.61-.65v-6.509c0-.43.182-.614.527-.614h.941c.775 0 1.434.1 1.863.299 1.122.5 1.435 1.565 1.435 3.479 0 1.93-.297 3.112-1.5 3.678m.956-9.121c-.725-.218-1.749-.317-3.117-.317h-1.633c-1.17 0-1.749.584-1.749 1.814v8.174c0 1.248.545 1.764 1.716 1.764h1.468c.891 0 2.424-.082 3.267-.4 2.291-.864 2.951-2.712 2.951-5.608 0-3.03-.907-4.846-2.903-5.427m-9.664 11.452h-1.386c-.264 0-.43-.15-.43-.5V19.7c0-.301.133-.5.447-.5h1.418c.314 0 .412.182.412.483v10.803c0 .317-.181.499-.461.499m-14.053 0h-1.402c-.264 0-.395-.182-.395-.5V20.83c0-.866.214-1.681 1.615-1.681h.495c1.155 0 1.237.3 1.798 1.73 1.14 2.948 1.47 3.83 1.798 4.845.362-1.05.627-1.864 1.764-4.878.463-1.232.627-1.697 1.882-1.697h.561c1.336 0 1.417.666 1.417 1.68v9.606c0 .4-.163.549-.46.549h-1.387c-.263 0-.429-.15-.429-.532 0-5.992.016-7.324.067-8.973-.413 1.366-.743 2.348-2.276 6.426-.265.699-.446.982-1.024.982h-.264c-.543 0-.79-.266-1.022-.916-1.467-3.995-1.847-5.026-2.342-6.492.05 1.649.05 3.08.05 9.023 0 .265-.115.482-.446.482m-11.76 0h-1.384c-.264 0-.428-.15-.428-.5V19.7c0-.301.13-.5.444-.5h1.418c.313 0 .414.182.414.483v4.195h4.518v-4.178c0-.301.132-.5.462-.5h1.402c.314 0 .412.182.412.483v10.803c0 .317-.181.499-.461.499h-1.37c-.263 0-.445-.15-.445-.5v-4.593h-4.518v4.594c0 .317-.182.499-.463.499m-6.563-1.713c.99 0 1.55-.116 2.176-.268.231-.065.428-.1.544-.1.117 0 .247.05.313.232.134.367.248.8.248 1.1 0 .183-.099.333-.396.45-1.022.366-2.144.499-3.48.499-2.886 0-4.602-1.364-4.602-5.91 0-4.394 1.254-6.275 5.048-6.275 1.055 0 2.094.067 2.77.25.281.066.412.233.412.433 0 .216-.098.865-.247 1.232-.048.149-.197.216-.329.216-.133 0-.33-.034-.56-.084-.447-.084-1.024-.132-1.799-.132-2.309 0-2.952 1.18-2.952 4.112 0 2.963.66 4.245 2.854 4.245m-6.382-1.748c0 2.229-1.057 3.66-4.372 3.66-1.154 0-2.457-.15-3.463-.482-.248-.081-.412-.232-.412-.515 0-.251.131-.666.214-.982.082-.284.247-.433.527-.433.149 0 .447.082.61.133.809.25 1.649.367 2.575.367 1.698 0 1.961-.7 1.961-1.45 0-.766-.181-1.181-1.55-1.53l-1.435-.35c-1.781-.433-2.672-1.415-2.672-3.362 0-2.148 1.072-3.58 4.24-3.58.873 0 2.176.084 3.001.349.214.068.396.217.396.517 0 .182-.099.616-.199.98-.048.235-.197.385-.412.385-.165 0-.428-.05-.577-.084a13.554 13.554 0 0 0-2.358-.216c-1.402 0-1.749.599-1.749 1.432 0 .583.166 1.147 1.435 1.465l1.451.366c2.128.6 2.789 1.299 2.789 3.33m-17.814 3.46h-1.319c-.264 0-.429-.148-.429-.498v-9.772c0-1.047.413-1.564 1.518-1.564h.626c.94 0 1.155.416 1.484 1.115 2.656 5.494 3.135 6.61 3.646 7.858-.049-1.514-.049-2.963-.049-8.307 0-.366.166-.616.494-.616h1.237c.33 0 .446.232.446.566v10.02c0 1.1-.61 1.3-1.287 1.3h-.51c-.958 0-1.238-.332-1.7-1.283-2.953-6.091-3.217-6.724-3.728-7.957.017 1.149.033 2.282.033 8.64 0 .317-.18.499-.462.499m-9.466-.017c-1.154 0-1.766-.466-1.766-1.78v-8.141c0-1.248.562-1.831 1.766-1.831h4.949c.313 0 .462.1.462.45v1.164c0 .284-.15.384-.462.384h-3.91c-.346 0-.527.183-.527.615v2.048h4.024c.297 0 .46.1.46.45v1.165c0 .284-.163.4-.46.4H83.48v2.43c0 .45.164.649.627.649h4.089c.298 0 .462.084.462.45v1.148c0 .283-.148.399-.462.399h-5.228zm-6.96-2.08c-.247.1-.71.167-1.352.167h-1.221c-.461 0-.626-.184-.626-.633v-2.597h1.616c.627 0 1.154.017 1.534.167.528.215.84.63.84 1.348 0 .882-.28 1.349-.791 1.548zm-3.2-7.225c0-.416.133-.6.495-.6h1.138c.413 0 .843.034 1.089.1.528.167.94.45.94 1.382 0 .683-.313 1.116-.742 1.299-.263.116-.76.149-1.402.149h-1.517v-2.33zm4.24 3.147c1.188-.4 1.715-1.232 1.715-2.681 0-1.715-.875-2.613-2.772-2.813a19.782 19.782 0 0 0-1.797-.1h-1.93c-1.188 0-1.732.65-1.732 1.83v8.158c0 1.266.56 1.764 1.732 1.764h1.832c1.583 0 2.738-.133 3.364-.383 1.237-.5 1.665-1.631 1.665-3.03 0-1.63-.742-2.43-2.077-2.745zM63.67 30.967c-1.12 0-1.732-.498-1.732-1.696v-9.573c0-.3.132-.5.445-.5h1.42c.313 0 .41.183.41.484v8.673c0 .399.166.615.612.615h4.008c.296 0 .461.084.461.45v1.148c0 .283-.165.399-.46.399H63.67zm-8.773-1.696c-1.715 0-2.64-.635-2.64-4.245 0-3.397.958-4.112 2.674-4.112 1.928 0 2.638.615 2.638 4.128 0 3.663-.99 4.229-2.672 4.229m.099-10.272c-2.903 0-5.08 1.048-5.08 6.027 0 4.894 1.599 6.158 4.948 6.158 3.447 0 5.08-1.298 5.08-6.175 0-5.128-1.633-6.01-4.948-6.01m-13.31 11.985H40.3c-.263 0-.428-.15-.428-.5V19.7c0-.301.132-.5.446-.5h1.417c.314 0 .412.182.412.483v4.21h1.023c.395 0 .595-.082.758-.331l2.425-3.98c.133-.233.331-.4.61-.4.462 0 1.056.018 1.404.05.262.034.346.134.346.35 0 .134-.084.335-.166.466-2.194 3.564-2.59 4.129-3.017 4.746.363.582.989 1.546 3.316 5.276.114.167.228.366.228.55 0 .183-.13.333-.346.348-.495.035-1.105.035-1.648.035-.298 0-.43-.151-.562-.368l-2.753-4.46c-.166-.25-.347-.283-.661-.283h-.957v4.594c0 .317-.18.499-.462.499M17.62 30.121l-2.492.005v3.434l4.36-.013zM9.352 26.544h.784V23.28h-.363l-.002-.002a.303.303 0 0 1-.303-.296v-.004l-.002-3.15.002-.002s-.002-.002-.002-.005c0-.163.134-.294.3-.299l.002-.002h.368v-3.273h-.778c-1.925 0-3.132.96-3.132 2.795 0 .098.003 4.116 0 4.25-.008 1.7.827 3.253 3.126 3.253M7.01 33.585l3.126-.01v-3.438l-3.126.005c-.56 0-.826.172-.826.775v2.01c0 .487.265.658.826.658m10.525-14.067l1.764-3.275c-1.267 0-2.917 0-4.17.002v3.273h2.406z"/><path d="M23.734 16.5c.122-.223.243-.557.243-.778 0-.36-.121-.528-.511-.582-.51-.057-1.384-.084-2.064-.084-.413 0-.705.278-.9.666l-3.57 6.635c-.242.416-.534.556-1.117.556h-1.506V15.89c0-.5-.146-.807-.608-.807h-2.09c-.46 0-.654.334-.654.834v17.99c0 .583.243.834.63.834h2.042c.412 0 .68-.307.68-.834v-7.663h1.409c.46 0 .729.057.972.471l4.056 7.443c.195.361.388.61.826.61.802 0 1.7 0 2.429-.055.316-.029.51-.279.51-.583 0-.306-.17-.64-.34-.916-3.425-6.219-4.348-7.83-4.883-8.802.632-1.027 1.215-1.97 4.446-7.913"/><path d="M26.538 18.889v-1.913c0-.575-.252-.738-.787-.738h-.99c-.037.09-.072.187-.113.26a588.382 588.382 0 0 1-1.65 3.02h2.753c.535 0 .787-.163.787-.63m.072 12.423l-.013-5.801c.04-1.111-.758-2.224-2.495-2.221l-3.22-.002c-.28.476-.479.797-.68 1.126.246.447.578 1.037 1.194 2.14.902 0 1.475.002 1.475.002.357 0 .645.28.645.629l.006 2.3a.591.591 0 0 1-.243.458c.51.924 1.103 1.996 1.805 3.272.03.047.052.103.081.153 1.006-.351 1.475-1.201 1.445-2.056"/><path d="M3.43 13.1l.01.022C1.229 14.105.9 15.517.9 16.272v32.863c.198-.141 27.226-12.17 27.425-12.26 2.215-.981 2.545-2.392 2.545-3.146V.865C7.998 11.085 4.138 12.81 3.43 13.1M.869 50a.867.867 0 0 1-.87-.865V16.272c0-.783.3-2.737 3.077-3.971L30.579.063a.868.868 0 0 1 1.188.802v32.864c0 .782-.3 2.735-3.075 3.967l-.022-.048c-.886.453-5.232 2.386-27.481 12.287a.81.81 0 0 1-.32.065m166.398-19.016h-1.402c-.265 0-.446-.167-.446-.5v-9.271h-2.837c-.313 0-.46-.1-.46-.383v-1.164c0-.351.147-.451.46-.451h8c.313 0 .461.1.461.45v1.165c0 .283-.148.383-.46.383h-2.855v9.272c0 .332-.198.499-.46.499"/></g></svg>