<svg xmlns="http://www.w3.org/2000/svg" width="162" height="51" viewBox="0 0 162 51"><g fill="#000" fill-rule="evenodd"><path d="M3.798 13.373l.009.021c-2.212.982-2.542 2.394-2.542 3.15v32.862c.199-.14 27.227-12.169 27.426-12.259 2.215-.982 2.545-2.392 2.545-3.147V1.137C8.365 11.357 4.505 13.082 3.798 13.373M1.236 50.271a.867.867 0 0 1-.87-.865V16.543c0-.782.3-2.737 3.077-3.97L30.946.335a.81.81 0 0 1 .319-.064c.479 0 .869.388.869.866V34c0 .782-.3 2.735-3.075 3.967l-.022-.048c-.886.453-5.232 2.386-27.481 12.288a.84.84 0 0 1-.32.064M43.03 31.52h-1.428c-.268 0-.403-.185-.403-.503v-9.741c0-.874.219-1.697 1.645-1.697h.504c1.176 0 1.26.303 1.83 1.748 1.16 2.97 1.496 3.862 1.833 4.886.369-1.057.638-1.881 1.796-4.92.47-1.244.638-1.714 1.914-1.714h.572c1.36 0 1.444.672 1.444 1.697v9.69c0 .403-.168.554-.47.554h-1.411c-.27 0-.436-.151-.436-.537 0-6.046.017-7.39.067-9.053-.42 1.378-.756 2.368-2.318 6.484-.27.706-.453.99-1.042.99h-.268c-.555 0-.805-.268-1.041-.922-1.495-4.032-1.882-5.072-2.385-6.552.05 1.664.05 3.108.05 9.104 0 .268-.117.486-.453.486zm16.878.2c-3.411 0-5.04-1.274-5.04-6.213 0-5.02 2.218-6.08 5.174-6.08 3.375 0 5.038.892 5.038 6.064 0 4.92-1.663 6.23-5.172 6.23zm.066-10.36c-1.746 0-2.72.722-2.72 4.147 0 3.645.94 4.284 2.687 4.284 1.713 0 2.72-.571 2.72-4.267 0-3.543-.722-4.164-2.687-4.164zm11.134 10.16h-1.427c-.27 0-.453-.168-.453-.503v-9.353h-2.89c-.318 0-.47-.103-.47-.388V20.1c0-.353.152-.454.47-.454h8.146c.319 0 .47.1.47.454v1.176c0 .285-.151.388-.47.388h-2.906v9.353c0 .335-.201.503-.47.503zm9.69.2c-3.41 0-5.038-1.274-5.038-6.213 0-5.02 2.217-6.08 5.173-6.08 3.376 0 5.037.892 5.037 6.064 0 4.92-1.661 6.23-5.172 6.23zm.067-10.36c-1.746 0-2.72.722-2.72 4.147 0 3.645.94 4.284 2.686 4.284 1.715 0 2.72-.571 2.72-4.267 0-3.543-.72-4.164-2.686-4.164zm9.237 10.16h-1.395c-.27 0-.435-.151-.435-.503V21.56c0-1.275.469-1.915 1.863-1.915h1.276c1.646 0 2.77.15 3.41.403 1.277.522 1.713 1.697 1.713 3.14 0 1.446-.487 2.654-1.898 3.243l2.284 4.13c.102.186.236.404.236.605a.296.296 0 0 1-.251.303c-.152.033-1.328.083-1.681.083-.301 0-.471-.15-.588-.386l-2.201-4.316c-.284.018-.587.018-.923.018h-.922v4.148c0 .335-.204.503-.488.503zm1.479-6.498c.72 0 1.308-.068 1.695-.201.537-.202.874-.758.874-1.513 0-.89-.27-1.378-.84-1.58-.336-.117-.857-.15-1.511-.15h-.657c-.403 0-.552.185-.552.554v2.89h.99zm14.794 3.005c0 2.25-1.075 3.694-4.45 3.694-1.176 0-2.503-.151-3.527-.485-.253-.085-.42-.237-.42-.523 0-.25.134-.671.219-.99.083-.285.25-.435.537-.435.15 0 .454.083.62.132.824.253 1.68.37 2.62.37 1.73 0 1.999-.705 1.999-1.46 0-.773-.185-1.193-1.58-1.545l-1.46-.353c-1.813-.435-2.721-1.427-2.721-3.392 0-2.167 1.092-3.612 4.318-3.612.889 0 2.216.085 3.055.353.219.067.404.218.404.52 0 .187-.101.623-.203.992-.05.235-.201.386-.42.386-.167 0-.436-.051-.586-.085a13.98 13.98 0 0 0-2.402-.218c-1.427 0-1.781.605-1.781 1.445 0 .589.169 1.159 1.46 1.477l1.48.37c2.166.604 2.838 1.31 2.838 3.359zm3.895 3.476c-1.175 0-1.797-.47-1.797-1.796v-8.212c0-1.26.572-1.85 1.797-1.85h5.039c.318 0 .47.102.47.455v1.176c0 .285-.152.388-.47.388h-3.98c-.353 0-.538.183-.538.62v2.065h4.098c.302 0 .47.1.47.454v1.176c0 .284-.168.402-.47.402h-4.098v2.45c0 .457.168.658.638.658h4.165c.302 0 .47.083.47.452V31.1c0 .286-.151.403-.47.403h-5.324zm9.69.017h-1.394c-.268 0-.436-.151-.436-.503V21.56c0-1.275.47-1.915 1.863-1.915h1.278c1.645 0 2.769.15 3.408.403 1.276.522 1.713 1.697 1.713 3.14 0 1.446-.486 2.654-1.897 3.243l2.283 4.13c.1.186.235.404.235.605a.294.294 0 0 1-.252.303c-.15.033-1.326.083-1.68.083-.301 0-.468-.15-.586-.386l-2.201-4.316c-.284.018-.587.018-.923.018h-.924v4.148c0 .335-.201.503-.487.503zm1.478-6.498c.723 0 1.31-.068 1.696-.201.538-.202.873-.758.873-1.513 0-.89-.268-1.378-.84-1.58-.336-.117-.856-.15-1.511-.15h-.655c-.403 0-.554.185-.554.554v2.89h.99zm13.787-4.871c.118-.386.269-.555.604-.555.506 0 1.226.017 1.58.102a.331.331 0 0 1 .252.335c0 .15-.068.352-.134.538l-3.393 9.858c-.202.588-.454 1.124-1.545 1.124h-.638c-1.075 0-1.343-.536-1.58-1.21l-3.308-9.74a1.642 1.642 0 0 1-.117-.554c0-.133.066-.284.218-.351.2-.085 1.226-.102 1.696-.102.353 0 .454.15.587.555 2.336 7.205 2.555 7.909 2.839 8.95.303-1.023.555-1.762 2.939-8.95zm5.526 11.369h-1.412c-.268 0-.437-.151-.437-.503V20.134c0-.302.135-.505.454-.505h1.444c.319 0 .42.186.42.488v10.9c0 .318-.184.503-.47.503zm7.892-1.73a8.435 8.435 0 0 0 2.218-.27 2.39 2.39 0 0 1 .554-.1c.117 0 .25.052.319.238.134.368.25.805.25 1.106 0 .186-.1.336-.402.454-1.041.369-2.183.503-3.544.503-2.94 0-4.685-1.377-4.685-5.96 0-4.434 1.276-6.333 5.139-6.333 1.076 0 2.133.069 2.82.252.287.067.422.236.422.437 0 .218-.101.874-.251 1.243-.052.15-.203.218-.336.218-.136 0-.337-.034-.572-.083-.453-.085-1.041-.135-1.831-.135-2.351 0-3.006 1.192-3.006 4.147 0 2.99.672 4.284 2.905 4.284zm6.634 1.713c-1.176 0-1.798-.47-1.798-1.796v-8.212c0-1.26.572-1.85 1.798-1.85h5.038c.319 0 .469.102.469.455v1.176c0 .285-.15.388-.47.388h-3.98c-.352 0-.537.183-.537.62v2.065h4.099c.3 0 .468.1.468.454v1.176c0 .284-.167.402-.468.402h-4.1v2.45c0 .457.17.658.64.658h4.164c.303 0 .47.083.47.452V31.1c0 .286-.15.403-.47.403h-5.323z"/><path d="M16.702 16.828h.805c1.916 0 2.034.96 2.034 2.42v13.83c0 .576-.236.791-.662.791h-1.986c-.38 0-.617-.215-.617-.766 0-8.629.025-10.547.095-12.92-.592 1.967-1.064 3.38-3.264 9.253-.378 1.007-.639 1.412-1.467 1.412h-.378c-.78 0-1.135-.382-1.467-1.317-.522-1.425-.946-2.585-1.302-3.564l1.467-3.87c.815 2.137 1.166 3.12 1.516 4.2.519-1.512.897-2.687 2.53-7.024.664-1.774.899-2.445 2.696-2.445zm-11.093 0h.71c1.656 0 1.775.432 2.578 2.494l.567 1.477-1.455 3.842c-.744-2.05-1.126-3.13-1.572-4.458.072 2.373.072 4.437.072 12.991 0 .385-.168.695-.639.695H3.858c-.378 0-.568-.262-.568-.718V19.248c0-1.245.308-2.42 2.319-2.42zm14.853.76c.987-.469 2.299-.737 4.039-.737 1.336 0 3.327.116 4.588.487.327.094.603.303.603.722 0 .257-.15.858-.301 1.37-.075.324-.302.532-.63.532-.253 0-.656-.068-.882-.115a22.476 22.476 0 0 0-3.605-.3c-2.141 0-2.671.833-2.671 1.994 0 .795.252 1.565 2.077 2.013l-1.164 3.07-.409-.092a7.912 7.912 0 0 1-1.645-.547v-8.397zm2.964 9.237l1.159-3.06 1.429.33c3.25.836 4.259 1.811 4.259 4.644 0 3.111-1.614 5.105-6.679 5.105-.878 0-2.019-.05-3.132-.162v-2.729c1.079.146 2.284.223 3.209.223 2.593 0 2.998-.975 2.998-2.022 0-1.065-.277-1.648-2.368-2.134l-.875-.195z"/></g></svg>