<svg xmlns="http://www.w3.org/2000/svg" width="118" height="50" viewBox="0 0 118 50"><g fill="#000" fill-rule="evenodd"><path d="M41.464 30.913H40.07c-.27 0-.436-.15-.436-.505v-9.42c0-1.36.487-1.949 1.847-1.949h1.496c1.66 0 2.787.15 3.424.42 1.277.52 1.697 1.713 1.697 3.123 0 1.546-.521 2.822-2.251 3.343-.722.218-1.595.301-2.754.301H41.95v4.182c0 .336-.202.505-.487.505zm1.729-6.517c.724 0 1.277-.067 1.646-.202.555-.218.875-.738.875-1.477 0-.89-.303-1.377-.841-1.579-.336-.118-.956-.167-1.712-.167h-.723c-.353 0-.487.167-.487.553v2.872h1.242zm8.666 6.517h-1.412c-.267 0-.436-.15-.436-.505V19.525c0-.3.135-.503.454-.503h1.444c.319 0 .42.185.42.487v10.9c0 .32-.184.504-.47.504zm5.02-.018c-1.175 0-1.796-.469-1.796-1.797v-8.21c0-1.26.572-1.849 1.797-1.849h5.038c.32 0 .47.101.47.453v1.176c0 .285-.15.385-.47.385h-3.98c-.352 0-.536.186-.536.623v2.065h4.097c.302 0 .47.101.47.453v1.176c0 .286-.168.403-.47.403h-4.097v2.452c0 .455.167.656.637.656h4.165c.302 0 .47.084.47.453v1.158c0 .286-.15.403-.47.403H56.88zm9.69.018h-1.393c-.268 0-.438-.15-.438-.505v-9.455c0-1.275.472-1.914 1.865-1.914h1.276c1.646 0 2.772.15 3.41.403 1.276.52 1.714 1.696 1.714 3.14 0 1.445-.488 2.654-1.9 3.241l2.285 4.132c.1.185.236.403.236.604 0 .17-.12.288-.252.302-.151.034-1.326.085-1.68.085-.303 0-.471-.15-.588-.387l-2.2-4.316c-.286.017-.587.017-.924.017h-.924v4.148c0 .336-.2.505-.486.505zm1.478-6.5c.723 0 1.31-.066 1.697-.2.538-.202.874-.757.874-1.513 0-.89-.27-1.377-.841-1.579-.336-.117-.855-.15-1.511-.15h-.656c-.403 0-.554.183-.554.553v2.89h.99zm9.119 6.482c-1.192 0-1.764-.503-1.764-1.778v-8.23c0-1.194.555-1.848 1.764-1.848h1.966c.52 0 1.394.05 1.829.101 1.932.202 2.82 1.108 2.82 2.837 0 1.461-.535 2.301-1.744 2.705 1.36.32 2.115 1.125 2.115 2.77 0 1.411-.437 2.553-1.696 3.06-.638.25-1.813.383-3.426.383h-1.864zm2.099-7.037c.656 0 1.16-.033 1.428-.15.437-.186.756-.622.756-1.31 0-.94-.421-1.226-.957-1.394-.252-.068-.69-.1-1.11-.1h-1.158c-.37 0-.504.184-.504.604v2.35h1.545zm-1.545 4.468c0 .455.168.64.64.64h1.24c.656 0 1.127-.068 1.379-.17.52-.2.806-.67.806-1.56 0-.724-.321-1.142-.858-1.36-.386-.153-.923-.17-1.561-.17H77.72v2.62zm17.55-2.167c0 1.696-.083 2.622-.505 3.341-.637 1.06-2.05 1.632-4.198 1.632-1.797 0-3.425-.354-4.064-1.749-.336-.739-.37-1.88-.37-3.19v-6.7c0-.252.135-.47.455-.47h1.477c.268 0 .385.184.385.47v7.203c0 .823.052 1.396.353 1.814.336.488.993.674 1.898.674.74 0 1.613-.103 1.982-.64.286-.402.369-.905.369-1.813v-7.239c0-.25.135-.47.455-.47h1.36c.285 0 .403.185.403.47v6.667zm4.466 4.754H98.34c-.268 0-.436-.15-.436-.505v-9.455c0-1.275.47-1.914 1.864-1.914h1.277c1.646 0 2.77.15 3.41.403 1.276.52 1.712 1.696 1.712 3.14 0 1.445-.487 2.654-1.897 3.241l2.283 4.132c.1.185.236.403.236.604 0 .17-.118.288-.253.302-.151.034-1.326.085-1.678.085-.303 0-.471-.15-.588-.387l-2.201-4.316c-.285.017-.588.017-.923.017h-.923v4.148c0 .336-.202.505-.488.505zm1.479-6.5c.72 0 1.309-.066 1.696-.2.536-.202.872-.757.872-1.513 0-.89-.27-1.377-.84-1.579-.335-.117-.856-.15-1.51-.15h-.656c-.402 0-.553.183-.553.553v2.89h.99zm16.173 5.826c-.085.12-.251.22-.403.286-.69.271-2.251.59-4.065.59-3.14 0-4.837-1.378-4.837-5.963 0-4.434 1.427-6.33 5.34-6.33 1.126 0 2.402.116 3.074.283.303.084.42.253.42.454 0 .236-.1.857-.235 1.226-.051.151-.167.235-.336.235-.133 0-.318-.033-.57-.067a13.657 13.657 0 0 0-2.185-.2c-2.317 0-3.124 1.241-3.124 4.147 0 2.923.622 4.3 2.906 4.3.873 0 1.479-.102 1.883-.22.184-.049.3-.167.3-.436v-2.082h-1.965c-.234 0-.336-.152-.336-.354v-1.292c0-.236.118-.386.354-.386h3.528c.267 0 .403.134.403.437v4.77c0 .286-.018.453-.152.602zM25.473 22.99c-.095-4.807-4.224-8.456-8.725-8.456-6.914 0-9.907 4.715-9.95 8.46h5.38c.163-3.163 2.677-5.675 5.807-5.675 3.127 0 5.603 2.512 5.76 5.675l1.728-.004zm-13.298.89h-5.38v12.464c0 .74.303 1.057.775 1.057h3.763c.505 0 .88-.352.88-1.057V28.311c1.237 1.798 3.5 2.98 5.791 2.98 4.261 0 7.275-3.322 7.462-7.423H23.75c-.128 3.196-2.615 5.79-5.764 5.79-2.94 0-5.684-2.063-5.81-5.778z"/><path d="M3.43 13.102l.01.02c-2.212.983-2.542 2.395-2.542 3.15v32.863c.199-.141 27.227-12.17 27.426-12.26 2.215-.981 2.545-2.391 2.545-3.146V.866C7.998 11.086 4.138 12.81 3.43 13.102M.869 50a.867.867 0 0 1-.87-.865V16.272c0-.782.3-2.737 3.077-3.97L30.579.064A.81.81 0 0 1 30.898 0c.479 0 .869.388.869.866v32.863c0 .782-.3 2.735-3.075 3.967l-.022-.048c-.886.453-5.232 2.386-27.481 12.288a.84.84 0 0 1-.32.064"/></g></svg>