<?xml version="1.0" encoding="UTF-8"?>
<!-- Created with Inkscape (http://www.inkscape.org/) -->
<svg width="186.81mm" height="31.623mm" version="1.1" viewBox="0 0 186.81 31.623" xmlns="http://www.w3.org/2000/svg" xmlns:cc="http://creativecommons.org/ns#" xmlns:dc="http://purl.org/dc/elements/1.1/" xmlns:rdf="http://www.w3.org/1999/02/22-rdf-syntax-ns#">
 <metadata>
  <rdf:RDF>
   <cc:Work rdf:about="">
    <dc:format>image/svg+xml</dc:format>
    <dc:type rdf:resource="http://purl.org/dc/dcmitype/StillImage"/>
    <dc:title/>
   </cc:Work>
  </rdf:RDF>
 </metadata>
 <g transform="translate(-12.369 -10.702)">
  <path d="m38.234 42.129c-2.9804-0.58686-5.1605-2.9114-5.8513-6.2388-0.27996-1.3486 0.04045-15.967 0.35691-16.283 0.10404-0.10405 0.6474-0.16008 1.2074-0.12452l1.0183 0.0646-0.0819 8.0179c-0.07992 7.8233-0.07115 8.0415 0.36086 8.9879 0.94084 2.061 3.2114 3.2397 5.849 3.0363 1.7608-0.1358 3.1062-0.73391 4.2711-1.8988 1.4692-1.4692 1.5468-1.9462 1.7301-10.64l0.15798-7.491 0.90234-0.17816c1.6677-0.3293 1.5713-0.84515 1.4048 7.5117-0.16865 8.4651-0.31165 9.5163-1.5564 11.442-1.1927 1.8454-2.4299 2.744-4.9905 3.625-1.2025 0.41371-3.1799 0.4835-4.7788 0.16867zm-25.865-0.51817c0-0.30392 0.16742-0.71422 1.355-3.3207 0.26094-0.57271 0.82203-1.8379 1.2469-2.8115 0.42484-0.97361 0.94111-2.1451 1.1473-2.6032s0.53748-1.2079 0.73627-1.6661c0.19879-0.45817 0.68046-1.5359 1.0704-2.395 1.2973-2.8583 1.5497-3.4158 2.9641-6.5482 0.77286-1.7116 1.4972-3.1427 1.6098-3.1802s0.70035 1.1754 1.3063 2.6955c0.60596 1.52 1.2235 3.0448 1.3723 3.3884 0.14882 0.34363 0.75982 1.8431 1.3578 3.3321 0.59796 1.489 2.013 5.0009 3.1446 7.8041 1.1315 2.8032 2.0574 5.1695 2.0574 5.2585s-0.58573 0.161-1.3016 0.16l-1.3016-2e-3 -0.9058-2.237c-0.49819-1.2303-1.1296-2.7289-1.403-3.3302l-0.49724-1.0934-1.2002-0.0328c-2.4612-0.0674-7.0373 0.0809-7.2002 0.23331-0.18215 0.17043-1.8292 3.6946-2.4289 5.197-0.47172 1.1818-0.89477 1.4751-2.1279 1.4751-0.76708 0-1.0015-0.0758-1.0015-0.32381zm12.912-9.334c0-0.326-0.46328-1.6894-0.91264-2.6858-0.16679-0.36986-0.60808-1.4925-0.98065-2.4947-0.37256-1.0022-0.74352-1.8222-0.82436-1.8222s-0.23541 0.11713-0.3435 0.26031c-0.34024 0.45066-2.9783 6.4081-2.9783 6.7257 0 0.2512 0.51608 0.30297 3.0197 0.30297 2.4226 0 3.0197-0.0566 3.0197-0.2862zm49.357 9.5252c-3.6274-0.53022-5.9841-1.7572-7.9251-4.1261-1.8774-2.2914-2.5608-4.2114-2.5612-7.1954-2.08e-4 -2.658 0.57491-4.5013 2.0496-6.5679 6.0059-8.4165 18.758-6.3257 21.272 3.4877 0.49968 1.9504 0.30728 4.827-0.44976 6.7247-1.3714 3.4377-4.5407 6.304-8.0122 7.2462-1.2195 0.33099-3.5115 0.55675-4.3734 0.43077zm3.7867-2.906c3.4017-0.88297 6.0661-3.8528 6.6819-7.4478 0.75355-4.3992-2.18-8.8761-6.5847-10.049-5.859-1.56-11.798 3.0112-11.798 9.0811 0 4.4199 3.2714 8.1144 7.7055 8.7022 1.5422 0.20441 2.3177 0.14878 3.995-0.2866zm-21.174 2.418c-0.1136-0.1838-0.03179-6.4106 0.20009-15.231 0.04702-1.7885 0.03315-3.452-0.03082-3.6966-0.11197-0.42818-0.22803-0.44477-3.1118-0.44477h-2.9955v-2.4991l2.1346-6e-3c1.1741-3e-3 4.5244-0.0269 7.4452-0.052l5.3106-0.0457 0.06246 1.1975 0.06246 1.1975-2.4574 0.039c-1.3516 0.0215-2.7386 0.0449-3.0822 0.052l-0.62477 0.013-0.12834 1.6661c-0.07059 0.91633-0.14548 4.2432-0.16642 7.3932-0.04066 6.115-0.17692 10.165-0.35149 10.448-0.15065 0.24374-2.1136 0.21728-2.2668-0.0305zm59.622-0.19845c-1.0946-0.86419-1.0882-3.3926 0.0165-6.4407 0.50822-1.4024 0.64899-1.6069 1.1857-1.7228 0.6637-0.14336 4.0453-0.22937 4.0453-0.10289 0 0.0429-0.12724 0.44116-0.28276 0.88509-0.72286 2.0634-0.59373 3.6186 0.30044 3.6186 0.93556 0 2.5538-1.3873 4.555-3.9048 0.68586-0.86286 1.0503-1.0979 1.0503-0.67732 0 0.11428-0.34569 0.7-0.76821 1.3016-3.8829 5.5288-8.2043 8.5416-10.102 7.0432zm-10.358-0.4106c-0.23688-0.33267-0.43069-0.84349-0.43069-1.1352 0-0.68864 0.41989-2.6774 0.62196-2.9458 0.0862-0.11454 0.2719-0.56551 0.4126-1.0021 0.17329-0.53779 0.43398-0.86246 0.80811-1.0064 0.67217-0.25869 4.0026-0.8583 4.1192-0.74164 0.046 0.046-0.1452 0.58984-0.42481 1.2086-1.3373 2.9594-0.26999 2.6588 2.6595-0.74925 0.73254-0.85219 0.69175-0.27013-0.059 0.8423-1.2652 1.8746-1.6106 2.3143-2.824 3.5949-2.3839 2.5159-4.0102 3.1602-4.8829 1.9346zm19.856 0.0846c-0.20673-0.31552-0.29739-0.74579-0.23038-1.0934 0.26392-1.3688 1.1655-4.018 1.8252-5.363l0.71497-1.4578 1.1454-0.0663c1.6127-0.0934 2.9977 0.13163 2.7424 0.44551-0.37592 0.46222-1.092 3.1247-0.8937 3.323 0.43252 0.43254 1.7304-0.50295 2.9715-2.1417 0.9568-1.2634 0.89447-0.49709-0.0798 0.98109-1.4842 2.2518-3.7302 4.5223-5.2003 5.2569-1.5936 0.79635-2.5257 0.83236-2.9953 0.11573zm-37.155 0.19723c0-0.0631 0.35144-0.26025 0.78097-0.43808 0.42953-0.17784 1.1862-0.50656 1.6815-0.7305 1.2103-0.54722 1.3921-0.42691 0.76012 0.50306-0.52077 0.76638-0.5542 0.78028-1.8764 0.78028-0.74039 0-1.3462-0.0516-1.3462-0.11476zm62.957-0.12458c-0.92009-0.4645-1.0164-1.5394-0.3143-3.5093 0.38327-1.0754 0.60527-1.2918 1.1884-1.1584 0.22908 0.0524 1.1038 0.11466 1.9437 0.13827 1.3916 0.0391 1.5437 0.0863 1.713 0.53151 0.21437 0.56383 0.31951 0.58182 1.0291 0.17618 0.28635-0.16369 0.68994-0.30095 0.89687-0.305 0.36279-7e-3 0.36279 0.0157 0 0.64-1.2404 2.1344-5.0551 4.1944-6.4568 3.4867zm32.217-0.0159c-1.3237-0.6436-2.1192-2.2871-2.2455-4.6388l-0.0894-1.6661 2.0526-0.58774c1.1289-0.32325 2.1416-0.57982 2.2505-0.57014 0.10887 0.01 0.17264 0.42898 0.14172 0.93178-0.13143 2.1373 1.0153 3.8008 2.4842 3.6038 1.2386-0.16612 2.1419-0.71195 3.9346-2.3774 0.93131-0.8652 1.7569-1.5095 1.8346-1.4318 0.23619 0.23619-0.76391 1.8966-1.7921 2.9754-1.2388 1.2998-3.0973 2.6673-4.4935 3.3065-1.2958 0.59324-3.3266 0.81959-4.0776 0.45448zm-87.361-0.4216c0.07437-0.25772 0.42376-1.0979 0.77641-1.867l0.64118-1.3985 2.2053-0.70326c1.2129-0.38679 2.231-0.64093 2.2624-0.56474 0.0314 0.0762-0.45704 1.2328-1.0855 2.5703l-1.1426 2.4318h-1.8962c-1.8677 0-1.8942-7e-3 -1.761-0.46858zm74.972-0.15437c-0.2841-0.31392-0.37529-0.75879-0.37529-1.8308 0-1.9331 0.204-2.2484 1.5636-2.4171 0.60551-0.0751 1.4992-0.19199 1.986-0.25974 0.79129-0.11014 0.8851-0.0783 0.8851 0.29994 0 0.61568 0.21626 1.082 0.50181 1.082 0.13694 0 0.72751-0.46858 1.3124-1.0413 0.98267-0.96224 1.7538-1.3963 1.3876-0.78097-0.59263 0.99563-1.8754 2.5255-2.9141 3.4755-1.9366 1.7712-3.5746 2.326-4.347 1.4725zm-35.51 0.13225c0-0.14859 1.6764-4.357 1.995-5.0081 0.16273-0.33259 0.29586-0.7194 0.29586-0.85959 0-0.60749 0.522-0.70498 2.0914-0.3906 2.1285 0.42638 2.1222 0.42348 1.8721 0.86095-0.11609 0.20305-0.71804 1.4938-1.3376 2.8683l-1.1266 2.4991-1.8951 0.0599c-1.0423 0.0329-1.8951 0.0194-1.8951-0.0299zm25.539-0.29869c-0.097-0.15689 0.0145-0.45698 0.92502-2.4907l0.39628-0.88509 1.2002-0.0123c0.6601-7e-3 1.5516-0.0392 1.9812-0.072 0.42954-0.0329 0.78097-0.0372 0.78097-0.01 0 0.17258-1.3345 3.1613-1.5065 3.3739-0.23522 0.2908-3.6038 0.37614-3.7771 0.0957zm-73.438-0.2446c0-0.0993 1.2457-2.6978 2.7683-5.7743 4.268-8.6239 4.9694-10.384 4.3033-10.795-0.321-0.19839-1.1749 0.43186-2.4475 1.8064-1.1965 1.2923-1.5003 1.4599-1.5003 0.82763 0-0.47256 2.6434-3.541 4.1041-4.7639 1.2182-1.0199 3.0861-1.9459 3.5755-1.7724 0.71412 0.25307 0.85902 0.53905 0.85902 1.6954 0 1.1441-0.5473 3.4763-1.0255 4.3697-0.47942 0.89581 0.17388 0.411 1.2985-0.96357 2.379-2.9078 5.084-5.0362 6.411-5.0443 1.3094-8e-3 1.4988 2.7813 0.4096 6.0322-0.3581 1.0688-0.62224 2.0299-0.58699 2.1357 0.0353 0.10575 0.38607-0.25604 0.77958-0.804 2.0772-2.8925 5.3621-6.1665 6.9661-6.9429 3.4479-1.6691 3.793 1.8959 0.76405 7.893l-0.99206 1.9642-1.3371 0.39468c-2.4981 0.73737-3.5684 1.0124-3.6443 0.93657-0.0416-0.0416 0.20566-0.58604 0.54953-1.2098 2.3018-4.1755 3.5424-7.2778 2.9104-7.2778-1.0082 0-4.9754 4.9115-7.2856 9.0197-0.57422 1.0212-0.84787 1.2841-1.753 1.6844-1.407 0.62223-3.8824 1.4426-3.9996 1.3255-0.05072-0.0507 0.33737-1.0678 0.86243-2.2602 2.3596-5.3585 3.7033-9.3627 3.2829-9.7831-0.26199-0.26199-1.054 0.50841-2.2621 2.2004-1.0277 1.4394-5.6664 9.0679-6.8622 11.285-0.80737 1.4971-0.80743 1.4972-2.6968 2.3812-1.0392 0.48624-2.2409 1.0497-2.6704 1.2521-0.42953 0.20241-0.78097 0.28676-0.78097 0.18743zm78.097-6.8149c-1.847-0.13914-1.8926-0.16965-1.578-1.0556 0.15223-0.4287 0.46634-1.1543 0.69801-1.6125 0.23168-0.45818 0.76677-1.6765 1.1891-2.7074 0.42234-1.0309 0.84965-2.0618 0.94959-2.2908 0.33709-0.77267 0.64422-2.2283 0.53192-2.5209-0.28898-0.75307-1.1891-0.15104-3.1463 2.1044-0.52724 0.6076-0.5383 0.61046-0.40215 0.10413 0.30054-1.1177 2.9247-4.0552 4.6693-5.2269 2.6403-1.7732 3.7337-0.47006 2.7256 3.2484-0.21736 0.8018-0.63748 2.1042-0.93359 2.8941-1.0394 2.7729-0.64472 2.5678 1.605-0.83422 1.6853-2.5484 3.6653-4.5789 5.2917-5.4264 1.6509-0.86036 2.2312-0.97644 2.9703-0.59425 1.1152 0.5767 1.1251 2.5997 0.0261 5.341-1.0242 2.5549-3.5302 7.9494-3.8166 8.2159-0.25996 0.24191-4.1158 0.6049-4.1158 0.38747 0-0.0619 0.69107-1.6306 1.5357-3.486 1.9441-4.2708 2.4697-5.7299 2.3848-6.6202-0.17588-1.8438-2.1002 0.26838-6.3235 6.9406-2.2995 3.6329-1.8735 3.3191-4.2613 3.1392zm-10.205-1.0526c-0.85907-0.16083-1.6409-0.36916-1.7373-0.46295-0.14389-0.13991 2.6064-6.0138 3.1668-6.7632 0.34729-0.46451 0.89553-2.2263 0.78357-2.518-0.34666-0.90339-1.7432 0.0703-3.542 2.4696-0.64979 0.86671-0.7536 0.93707-0.7536 0.51071 0-1.7207 5.4504-6.2009 7.5446-6.2015 0.87613-2.4e-4 1.2866 0.78905 1.1415 2.1951-0.12341 1.1957-1.4733 4.5832-3.3161 8.3218-1.3996 2.8394-1.3594 2.8095-3.2873 2.4486zm26.241-0.0231c0-0.45201 1.0874-3.0992 1.8722-4.5575 2.2546-4.1899 5.1672-6.7324 9.3621-8.1728 2.1643-0.7431 3.0153-0.70478 3.96 0.17833 0.91089 0.85154 1.2582 1.7326 1.258 3.1915-2.1e-4 1.6299-0.75846 3.2944-2.24 4.9172-0.8945 0.97975-1.2227 1.1777-2.8732 1.7323-2.64 0.88725-10.214 2.857-11.079 2.8813-0.14318 4e-3 -0.26032-0.0727-0.26032-0.17037zm7.7249-2.9229c0.67449-0.34522 1.6104-0.98303 2.0799-1.4174 1.1565-1.07 2.6706-4.2586 2.9969-6.3114 0.0631-0.39699-0.31523-1.2496-0.55451-1.2496-0.0998 0-0.52994 0.14533-0.9558 0.32295-1.5852 0.66114-3.5026 3.0207-5.026 6.1846-0.5654 1.1743-1.0925 2.3951-1.1714 2.7128-0.14007 0.56433-0.12554 0.57543 0.63061 0.48165 0.42569-0.0528 1.3258-0.37845 2.0003-0.72366zm-47.398 0.48689c-2.0824-0.50671-2.0792-0.50192-1.3697-2.0721 0.6874-1.5211 1.4538-4.079 1.3238-4.4179-0.2285-0.59543-0.72898-0.18133-2.5078 2.075-0.82547 1.0471-1.2991 1.4447-1.2991 1.0905 0-0.41054 2.0052-3.1668 3.3121-4.5525 1.0573-1.1212 3.2191-2.6295 3.7687-2.6295 0.19357 0 0.5255 0.19176 0.73762 0.42615 0.35275 0.38979 0.36511 0.56304 0.14479 2.0305-0.13248 0.8824-0.48165 2.3522-0.77594 3.2663-0.29428 0.91408-0.50892 1.7886-0.47696 1.9433 0.032 0.15474 0.72788-0.73371 1.5465-1.9744 2.2696-3.4397 4.5958-5.692 5.8788-5.692 0.566 0 1.0888 0.69864 1.2124 1.6201 0.23605 1.7598-1.2773 4.7508-2.7098 5.3556-1.0021 0.42306-1.3923-0.0235-1.3923-1.5933 0-2.0084-0.60898-1.6478-2.8685 1.6983-0.65744 0.97361-1.4281 2.214-1.7126 2.7564s-0.61185 1.0175-0.72749 1.0558c-0.11563 0.0383-1.0537-0.13557-2.0846-0.38642zm-23.013-1.2529c0-0.1319 0.87124-1.3185 1.6661-2.2691 1.9993-2.3912 4.7143-4.8549 6.4688-5.8702 1.0051-0.58165 2.7608-0.9791 3.6162-0.81863 0.38618 0.0724 0.9373 0.3167 1.2247 0.54277 0.69704 0.54829 0.87034 0.52173 1.394-0.21373 0.43746-0.61436 0.4759-0.62477 2.305-0.62477 1.0381 0 1.8601 0.0876 1.8601 0.19816 0 0.109-0.328 0.9442-0.7289 1.856-0.40089 0.9118-0.7289 1.7102-0.7289 1.7741 0 0.064-0.22918 0.61731-0.50927 1.2297-0.28011 0.61236-0.70226 1.6226-0.93813 2.2449-0.66007 1.7417-0.51485 1.6626-2.7804 1.5138-1.2057-0.0792-2.02-0.22202-2.02-0.35428 0-0.12188 0.38476-1.0091 0.85501-1.9717 0.9389-1.9218 1.3002-3.9228 0.81414-4.5086-0.46662-0.56224-1.3502-0.3643-2.6355 0.59041-1.5796 1.1734-2.6288 2.3236-4.1118 4.5082l-1.2017 1.7702-1.8062 0.24242c-2.1236 0.28502-2.7434 0.3212-2.7434 0.1602zm42.493-11.584c-0.86447-0.92791-0.30877-2.5137 0.73987-2.1113 0.27212 0.10442 0.31748 0.0673 0.18327-0.14984-0.0981-0.15873-0.19606-0.70844-0.21769-1.2216-0.0326-0.77364 0.0605-1.0327 0.5447-1.517 0.32121-0.32122 0.7318-0.58402 0.91243-0.58402 0.18062 0 0.3284-0.0937 0.3284-0.20826 0-0.31309 0.68019-0.2504 1.1949 0.11011 1.1968 0.83829 0.67007 3.4827-1.022 5.1308-1.1783 1.1477-1.9578 1.309-2.6639 0.55104z" stroke-width=".20826"/>
 </g>
</svg>
